<svg width="496" height="496" viewBox="0 0 496 496" fill="none" xmlns="http://www.w3.org/2000/svg">
<g clip-path="url(#clip0_64_905)">
<path d="M423.607 134.959L433.669 124.9C434.531 124.038 435.453 124.079 435.963 124.035C439.176 123.756 442.708 123.42 446.772 122.672C461.474 119.964 454.063 103.897 439.182 89.0157C424.299 74.1327 408.085 66.6951 405.527 81.4253C404.76 85.8361 404.444 89.0157 404.165 92.229C404.132 92.6122 404.166 93.2932 403.458 94.0013L393.756 103.703C391.867 105.592 390.389 104.162 389.595 103.504C359.499 78.5098 322.689 61.3302 282.267 55.0603C281.276 54.9076 279.292 54.6448 279.292 52.6213V46.6336C279.292 45.1772 280.427 44.636 280.98 44.39C290.502 40.1281 297.156 33.8751 303.383 26.6913C317.565 10.3324 278.67 0 248.191 0C217.71 0 178.819 10.3298 193.001 26.69C199.056 33.6732 205.512 39.7799 214.616 44.0314C215.3 44.3512 216.712 44.6917 216.712 46.8757V52.2976C216.712 54.4014 214.807 54.8856 213.856 55.0319C162.034 63.0404 116.132 88.9795 82.7109 126.333C47.5735 165.573 26.2122 217.397 26.2122 274.205C26.2122 396.702 125.509 496 247.994 496C364.523 496 460.065 406.14 469.089 291.916C469.553 286.076 469.789 280.173 469.789 274.204C469.789 223.237 452.593 176.291 423.695 138.837C423.12 138.092 421.936 136.631 423.607 134.959ZM426.936 291.76C418.121 382.824 341.374 454.002 247.994 454.002C148.695 454.002 68.1956 373.503 68.1956 274.205C68.1956 228.142 85.5189 186.132 114.001 154.322C146.923 117.556 194.758 94.4078 247.994 94.4078C347.303 94.4078 427.79 174.908 427.79 274.205C427.791 280.123 427.508 285.988 426.936 291.76Z" fill="url(#paint0_linear_64_905)"/>
<path d="M310.281 281.469H184.719C179.337 281.469 175.75 277.881 175.75 272.5C175.75 267.119 179.337 263.531 184.719 263.531H310.281C315.663 263.531 319.25 267.119 319.25 272.5C319.25 277.881 315.663 281.469 310.281 281.469Z" fill="url(#paint1_linear_64_905)"/>
<path d="M166.781 353.219C151.534 353.219 139.875 341.559 139.875 326.312V218.688C139.875 203.441 151.534 191.781 166.781 191.781C182.028 191.781 193.688 203.441 193.688 218.688V326.312C193.688 341.559 182.028 353.219 166.781 353.219Z" fill="url(#paint2_linear_64_905)"/>
<path d="M328.219 353.219C312.972 353.219 301.312 341.559 301.312 326.312V218.688C301.312 203.441 312.972 191.781 328.219 191.781C343.466 191.781 355.125 203.441 355.125 218.688V326.312C355.125 341.559 343.466 353.219 328.219 353.219Z" fill="url(#paint3_linear_64_905)"/>
<path d="M121.938 220.481C111.175 224.069 104 233.934 104 245.594V299.406C104 311.066 111.175 320.931 121.938 324.519V220.481Z" fill="url(#paint4_linear_64_905)"/>
<path d="M373.062 220.481V324.519C383.825 320.931 391 311.066 391 299.406V245.594C391 233.934 383.825 224.069 373.062 220.481Z" fill="url(#paint5_linear_64_905)"/>
</g>
<defs>
<linearGradient id="paint0_linear_64_905" x1="248.001" y1="0" x2="248.001" y2="496" gradientUnits="userSpaceOnUse">
<stop stop-color="#BE123C"/>
<stop offset="1" stop-color="#FF460E"/>
</linearGradient>
<linearGradient id="paint1_linear_64_905" x1="247.5" y1="263.531" x2="247.5" y2="281.469" gradientUnits="userSpaceOnUse">
<stop stop-color="#BE123C"/>
<stop offset="1" stop-color="#FF460E"/>
</linearGradient>
<linearGradient id="paint2_linear_64_905" x1="166.781" y1="191.781" x2="166.781" y2="353.219" gradientUnits="userSpaceOnUse">
<stop stop-color="#BE123C"/>
<stop offset="1" stop-color="#FF460E"/>
</linearGradient>
<linearGradient id="paint3_linear_64_905" x1="328.219" y1="191.781" x2="328.219" y2="353.219" gradientUnits="userSpaceOnUse">
<stop stop-color="#BE123C"/>
<stop offset="1" stop-color="#FF460E"/>
</linearGradient>
<linearGradient id="paint4_linear_64_905" x1="112.969" y1="220.481" x2="112.969" y2="324.519" gradientUnits="userSpaceOnUse">
<stop stop-color="#BE123C"/>
<stop offset="1" stop-color="#FF460E"/>
</linearGradient>
<linearGradient id="paint5_linear_64_905" x1="382.031" y1="220.481" x2="382.031" y2="324.519" gradientUnits="userSpaceOnUse">
<stop stop-color="#BE123C"/>
<stop offset="1" stop-color="#FF460E"/>
</linearGradient>
<clipPath id="clip0_64_905">
<rect width="496" height="496" fill="white"/>
</clipPath>
</defs>
</svg>
